<svg width="95" height="95" viewBox="0 0 95 95" fill="none" xmlns="http://www.w3.org/2000/svg">
<circle cx="47.5" cy="47.5" r="47.5" fill="#041522"/>
<path d="M47.5986 41.2338H46.3542C46.1224 39.9894 45.671 38.7206 45 37.4274C44.329 36.1342 43.4384 34.9386 42.3282 33.8406C41.218 32.7426 39.9065 31.8581 38.3937 31.1871C36.881 30.5161 35.1669 30.1806 33.2515 30.1806C30.6895 30.1806 28.3166 30.8821 26.1328 32.2851C23.9612 33.6759 22.2105 35.7194 20.8808 38.4156C19.5632 41.0996 18.9044 44.3813 18.9044 48.2609C18.9044 52.1893 19.5632 55.4955 20.8808 58.1795C22.2105 60.8634 23.9612 62.8947 26.1328 64.2733C28.3166 65.6519 30.6895 66.3412 33.2515 66.3412C35.1669 66.3412 36.881 66.0118 38.3937 65.353C39.9065 64.682 41.218 63.8036 42.3282 62.7178C43.4384 61.6198 44.329 60.4242 45 59.1311C45.671 57.8257 46.1224 56.5447 46.3542 55.2881H47.5986C47.3668 56.6057 46.9032 57.9782 46.2078 59.4055C45.5124 60.8207 44.573 62.1444 43.3896 63.3766C42.2062 64.6088 40.7727 65.6092 39.0891 66.3778C37.4055 67.1342 35.4597 67.5124 33.2515 67.5124C30.1771 67.5124 27.4748 66.7072 25.1446 65.0968C22.8144 63.4864 20.9967 61.2355 19.6913 58.3442C18.3859 55.4528 17.7332 52.0917 17.7332 48.2609C17.7332 44.4301 18.3859 41.0691 19.6913 38.1777C20.9967 35.2863 22.8144 33.0354 25.1446 31.425C27.4748 29.8146 30.1771 29.0094 33.2515 29.0094C35.4597 29.0094 37.4055 29.3876 39.0891 30.144C40.7727 30.9004 42.2062 31.8947 43.3896 33.1269C44.573 34.3469 45.5124 35.6706 46.2078 37.098C46.9032 38.5132 47.3668 39.8918 47.5986 41.2338ZM57.0962 67V29.5218H77.2261V30.693H58.2674V47.6753H75.4693V48.8465H58.2674V67H57.0962Z" fill="url(#paint0_linear_593_31)"/>
<defs>
<linearGradient id="paint0_linear_593_31" x1="48" y1="17" x2="48" y2="79" gradientUnits="userSpaceOnUse">
<stop stop-color="#D4B68C"/>
<stop offset="1" stop-color="#BF9F82"/>
</linearGradient>
</defs>
</svg>
