<svg width="24" height="24" viewBox="0 0 24 24" fill="none" xmlns="http://www.w3.org/2000/svg">
<path d="M12.1662 0C5.64719 0 0.361328 5.42288 0.361328 12.1053C0.361328 17.4544 3.7447 21.9867 8.43505 23.5888C8.50084 23.603 8.56799 23.6101 8.63531 23.6098C9.07272 23.6098 9.24137 23.2884 9.24137 23.009C9.24137 22.7192 9.23082 21.9603 9.22555 20.9485C8.83507 21.04 8.43559 21.0877 8.03452 21.0907C5.76313 21.0907 5.24667 19.3253 5.24667 19.3253C4.70912 17.9287 3.93442 17.5545 3.93442 17.5545C2.90676 16.8325 3.92915 16.8115 4.0082 16.8115H4.01347C5.19924 16.9169 5.8211 18.0657 5.8211 18.0657C6.41135 19.0987 7.20185 19.3885 7.90804 19.3885C8.37499 19.3792 8.83471 19.2714 9.25718 19.0723C9.36258 18.2923 9.66824 17.7601 10.0055 17.4544C7.38631 17.1487 4.63007 16.1105 4.63007 11.4729C4.63007 10.1501 5.08856 9.06976 5.84218 8.22655C5.72097 7.92089 5.31518 6.6877 5.95812 5.02236C6.04436 5.00172 6.133 4.99286 6.22163 4.99601C6.6485 4.99601 7.61292 5.15938 9.20447 6.26609C11.1383 5.72502 13.1836 5.72502 15.1175 6.26609C16.709 5.15938 17.6734 4.99601 18.1003 4.99601C18.1889 4.99286 18.2776 5.00172 18.3638 5.02236C19.0068 6.6877 18.601 7.92089 18.4798 8.22655C19.2334 9.07503 19.6919 10.1554 19.6919 11.4729C19.6919 16.1211 16.9304 17.1435 14.3006 17.4439C14.7222 17.818 15.1017 18.5559 15.1017 19.6836C15.1017 21.3015 15.0859 22.6085 15.0859 23.0038C15.0859 23.2884 15.2492 23.6098 15.6866 23.6098C15.7574 23.6101 15.8281 23.6031 15.8974 23.5888C20.5931 21.9867 23.9712 17.4491 23.9712 12.1053C23.9712 5.42288 18.6853 0 12.1662 0Z" fill="#18A096"/>
</svg>
