<svg width="22" height="22" viewBox="0 0 22 22" fill="none" xmlns="http://www.w3.org/2000/svg">
<path d="M19.5722 0H1.90634C0.941046 0 0.0976562 0.694556 0.0976562 1.64851V19.3536C0.0976562 20.3127 0.941046 21.1674 1.90634 21.1674H19.567C20.5375 21.1674 21.2651 20.307 21.2651 19.3536V1.64851C21.2708 0.694556 20.5375 0 19.5722 0ZM6.65909 17.6441H3.62666V8.21561H6.65909V17.6441ZM5.24777 6.78208H5.22603C4.25554 6.78208 3.62714 6.05965 3.62714 5.15531C3.62714 4.23443 4.27208 3.52901 5.26431 3.52901C6.25653 3.52901 6.86368 4.22923 6.88541 5.15531C6.88494 6.05965 6.25653 6.78208 5.24777 6.78208ZM17.7418 17.6441H14.7093V12.4888C14.7093 11.2537 14.268 10.4098 13.1709 10.4098C12.3327 10.4098 11.8366 10.9768 11.616 11.5292C11.5333 11.7276 11.5111 11.9979 11.5111 12.2738V17.6441H8.47864V8.21561H11.5111V9.52771C11.9524 8.8993 12.6417 7.99496 14.2458 7.99496C16.2364 7.99496 17.7422 9.30706 17.7422 12.1358L17.7418 17.6441Z" fill="#18A096"/>
</svg>
